<svg width="25" height="34" viewBox="0 0 25 34" fill="none" xmlns="http://www.w3.org/2000/svg">
<path d="M24.53 0.499989C24.6168 0.492514 24.155 1.00689 23.5036 1.64257C21.5593 3.53963 19.7751 6.57534 18.3796 10.3633C17.4912 12.7745 16.5014 14.1812 15.0388 15.1103C14.062 15.7311 14.4352 15.7626 15.7146 15.167C16.2381 14.9234 16.6969 14.7236 16.7341 14.7236C16.8788 14.7259 15.8407 17.4006 15.029 19.1172C14.008 21.2765 13.4012 22.1887 11.9626 23.7266C11.0792 24.6709 8.20894 26.8233 7.83078 26.8252C7.77633 26.8252 8.08733 26.1638 8.52316 25.3564C9.38823 23.754 10.6316 20.6557 11.3571 18.293C11.7694 16.9501 11.7919 16.7388 11.572 16.2978C11.348 15.849 11.3567 15.7946 11.6696 15.6953C12.145 15.5444 12.4325 15.0408 12.9753 13.4082C13.2319 12.6359 13.6519 11.6347 13.9079 11.1836C14.7275 9.73913 13.7387 10.8803 12.7673 12.5C11.9005 13.9454 11.151 15.6708 9.09934 20.9521C6.67834 27.1837 4.55297 30.5632 1.7175 32.6865C1.06856 33.1726 0.504608 33.5371 0.46457 33.4971C0.425538 33.4564 0.614921 33.1605 0.886445 32.8389C1.63721 31.9496 2.21253 30.5781 2.21457 29.6709L2.21652 28.8682L3.27219 28.8535C4.47006 28.8372 5.07594 28.5289 5.59836 27.6699C6.05376 26.921 6.25025 25.9294 6.56809 22.7598C6.92362 19.2137 7.13918 17.8267 7.66574 15.7021C9.15979 9.67278 12.9001 5.23625 18.6521 2.66991C20.2403 1.96138 24.0961 0.537671 24.53 0.499989Z" fill="white"/>
</svg>
